<svg xmlns="http://www.w3.org/2000/svg" viewBox="0 0 120 96">
  <rect width="120" height="96" rx="22" fill="#0b0e0c"/>
  <path d="M12 48C16 22 35 9 60 9s44 13 48 39" fill="none" stroke="#c95aa6" stroke-linecap="round" stroke-width="5"/>
  <path d="M20 49C24 28 40 17 60 17s36 11 40 32" fill="none" stroke="#ef6f62" stroke-linecap="round" stroke-width="5"/>
  <path d="M28 50C32 34 44 25 60 25s28 9 32 25" fill="none" stroke="#e9b653" stroke-linecap="round" stroke-width="5"/>
  <path d="M36 51C40 40 49 33 60 33s20 7 24 18" fill="none" stroke="#61b89b" stroke-linecap="round" stroke-width="5"/>
  <path d="M44 52C47 45 53 41 60 41s13 4 16 11" fill="none" stroke="#5d82c4" stroke-linecap="round" stroke-width="5"/>
  <path d="M45 82V61c0-9 6-16 15-16s15 7 15 16v21M41 82h38" fill="none" stroke="#f3f2ed" stroke-linecap="round" stroke-linejoin="round" stroke-width="2.6"/>
  <path d="M50 79V62c0-6 4-11 10-11s10 5 10 11v17z" fill="#1d211f" stroke="#aeb9cb" stroke-width="1.45"/>
  <path d="M54 79V63c0-4 2-7 6-7s6 3 6 7v16z" fill="#8089aa" opacity=".46"/>
</svg>
